<?xml version="1.0" encoding="UTF-8" standalone="no"?>
<svg xmlns="http://www.w3.org/2000/svg" viewBox="0 0 613 145">
  <path fill="#FFF" d="M127.47 83.49c12.51 0 30.61-2.58 30.61-17.46a14 14 0 0 0-.31-3.42l-7.45-32.36c-1.72-7.12-3.23-10.35-15.73-16.6C124.89 8.69 103.76.5 97.51.5 91.69.5 90 8 83.06 8c-6.68 0-11.64-5.6-17.89-5.6-6 0-9.91 4.09-12.93 12.5 0 0-8.41 23.72-9.49 27.16a6.43 6.43 0 0 0-.22 1.94c0 9.22 36.3 39.45 84.94 39.45M160 72.07c1.73 8.19 1.73 9.05 1.73 10.13 0 14-15.74 21.77-36.43 21.77-46.76.01-87.72-27.37-87.72-45.48a18.45 18.45 0 0 1 1.51-7.33C22.27 52 .5 55 .5 74.22c0 31.48 74.59 70.28 133.65 70.28 45.28 0 56.7-20.48 56.7-36.65 0-12.72-11-27.16-30.83-35.78"/>
  <path fill="#FFF" d="M160 72.07c1.73 8.19 1.73 9.05 1.73 10.13 0 14-15.74 21.77-36.43 21.77-46.76.01-87.72-27.37-87.72-45.48a18.45 18.45 0 0 1 1.51-7.33l3.61-9.09A6.43 6.43 0 0 0 42.47 44c0 9.22 36.3 39.45 84.94 39.45 12.51 0 30.61-2.58 30.61-17.46a14 14 0 0 0-.31-3.42z"/>
  <path fill="#E00" d="M579.74 92.8c0 11.89 7.15 17.67 20.19 17.67a52.11 52.11 0 0 0 11.89-1.68V95a24.84 24.84 0 0 1-7.68 1.16c-5.37 0-7.36-1.68-7.36-6.73V68.3h15.56V54.1h-15.56v-18l-17 3.68V54.1h-11.29v14.2h11.25zm-53 .32c0-3.68 3.69-5.47 9.26-5.47a43.12 43.12 0 0 1 10.1 1.26v7.15a21.51 21.51 0 0 1-10.63 2.63c-5.46 0-8.73-2.1-8.73-5.57m5.2 17.56c6 0 10.84-1.26 15.36-4.31v3.37h16.82V74.08c0-13.56-9.14-21-24.39-21-8.52 0-16.94 2-26 6.1l6.1 12.52c6.52-2.74 12-4.42 16.83-4.42 7 0 10.62 2.73 10.62 8.31v2.73a49.53 49.53 0 0 0-12.62-1.58c-14.31 0-22.93 6-22.93 16.73 0 9.78 7.78 17.24 20.19 17.24m-92.44-.94h18.09V80.92h30.29v28.82H506V36.12h-18.07v28.29h-30.29V36.12h-18.09zm-68.86-27.9c0-8 6.31-14.1 14.62-14.1 8.62 0 14.93 6.1 14.93 14.1s-6.31 14.1-14.93 14.1c-8.31 0-14.62-6.1-14.62-14.1m-17.24 0c0 17.67 14.2 31.66 31.86 31.66s32.17-14 32.17-31.66S303 50.16 285.35 50.16s-31.86 14-31.86 31.68m-57.33 0c0-8 6.31-14.1 14.62-14.1 8.62 0 14.93 6.1 14.93 14.1s-6.31 14.1-14.93 14.1c-8.31 0-14.62-6.1-14.62-14.1m-17.24 0c0 17.67 14.2 31.66 31.86 31.66s32.17-14 32.17-31.66-14.52-31.68-32.17-31.68-31.86 14-31.86 31.68m-71.86 27.9h18.09V80.92h30.29v28.82h18.09V36.12h-18.09v28.29h-30.29V36.12h-18.09z"/>
</svg>
